<svg viewBox="100.4 106.9 310.9 310.9" xmlns="http://www.w3.org/2000/svg">
  <defs>
    <linearGradient id="pinC2" x1="0" y1="0" x2="1" y2="1">
      <stop offset="0" stop-color="#EC8177"/>
      <stop offset="1" stop-color="#9E332B"/>
    </linearGradient>
  </defs>

  <!-- back card -->
  <g transform="rotate(10 256 270)">
    <rect x="150" y="160" width="212" height="222" rx="12" fill="#000000" opacity="0.10"/>
    <rect x="150" y="160" width="212" height="222" rx="12" fill="#EEE4CE"/>
  </g>

  <!-- middle card -->
  <g transform="rotate(-6 256 270)">
    <rect x="150" y="156" width="212" height="222" rx="12" fill="#000000" opacity="0.12"/>
    <rect x="150" y="156" width="212" height="222" rx="12" fill="#F4ECDA"/>
  </g>

  <!-- front card -->
  <g transform="rotate(3 256 270)">
    <rect x="150" y="150" width="212" height="222" rx="12" fill="#000000" opacity="0.16"/>
    <rect x="150" y="150" width="212" height="222" rx="12" fill="#FAF6EC"/>
    <rect x="176" y="206" width="150" height="11" rx="5.5" fill="#D9CFBB"/>
    <rect x="176" y="230" width="120" height="11" rx="5.5" fill="#D9CFBB"/>
    <rect x="176" y="254" width="140" height="11" rx="5.5" fill="#E9E1D2"/>
    <rect x="284" y="146" width="58" height="26" rx="3" fill="#8FA6BE" opacity="0.85" transform="rotate(-10 313 159)"/>
  </g>

  <circle cx="256" cy="146" r="20" fill="url(#pinC2)"/>
  <ellipse cx="249" cy="139" rx="6" ry="4" fill="#FFFFFF" opacity="0.45"/>
</svg>
